<svg height="512" viewBox="0 0 60 56" width="512" xmlns="http://www.w3.org/2000/svg"><g id="Page-1" fill="none" fill-rule="evenodd"><g id="019---Arrows" fill-rule="nonzero"><path id="Shape" d="m13 7h27v-3.87c-.0003054-.76678888.4378182-1.46624999 1.1278617-1.80062292s1.5105144-.24478628 2.1121383.23062292l13.77 10.87c.4827037.3779486.7647173.9569355.7647173 1.57s-.2820136 1.1920514-.7647173 1.57l-13.77 10.87c-.6016239.4754092-1.4220948.5649958-2.1121383.2306229s-1.1281671-1.033834-1.1278617-1.8006229v-3.87h-37c-1.10320187-.0032948-1.9967052-.8967981-2-2v-10c.0032948-1.10320187.89679813-1.9967052 2-2z" fill="#e8edfc"/><path id="Shape" d="m57.01 12.43-13.77-10.87c-.8211097-.65147379-2.0077671-.54973524-2.706.232l13.476 10.638c.4827037.3779486.7647173.9569355.7647173 1.57s-.2820136 1.1920514-.7647173 1.57l-13.476 10.638c.698473.7812548 1.8847355.8829595 2.706.232l13.77-10.87c.4827037-.3779486.7647173-.9569355.7647173-1.57s-.2820136-1.1920514-.7647173-1.57z" fill="#cad9fc"/><path id="Shape" d="m52 35h5c1.1032019.0032948 1.9967052.8967981 2 2v10c-.0032948 1.1032019-.8967981 1.9967052-2 2h-37v3.87c.0003054.7667889-.4378182 1.46625-1.1278617 1.8006229s-1.5105144.2447863-2.1121383-.2306229l-13.77-10.87c-.48270373-.3779486-.76471728-.9569355-.76471728-1.57s.28201355-1.1920514.76471728-1.57l13.77-10.87c.6016239-.4754092 1.4220948-.5649958 2.1121383-.2306229s1.1281671 1.033834 1.1278617 1.8006229v3.87z" fill="#a4c2f7"/><path id="Shape" d="m17 31.13v3.87h3.0000002l-.0000002-3.87c.0003054-.7667889-.4378182-1.46625-1.1278617-1.8006229s-1.5105144-.2447863-2.1121383.2306229l-.294.232c.342962.3610403.5341288.8400311.534 1.338z" fill="#7facfa"/><path id="Shape" d="m17 52.87c.0001288.4979689-.191038.9769597-.534 1.338l.294.232c.6016239.4754092 1.4220948.5649958 2.1121383.2306229s1.1281671-1.033834 1.1278617-1.8006229l.0000002-3.87h-3.0000002z" fill="#7facfa"/><path id="Shape" d="m57 35h-3c1.1032019.0032948 1.9967052.8967981 2 2v10c-.0032948 1.1032019-.8967981 1.9967052-2 2h3c1.1032019-.0032948 1.9967052-.8967981 2-2v-10c-.0032948-1.1032019-.8967981-1.9967052-2-2z" fill="#7facfa"/><path id="Shape" d="m2.99 43.57 13.77 10.87c.8211097.6514738 2.0077671.5497352 2.706-.232l-13.476-10.638c-.48270373-.3779486-.76471728-.9569355-.76471728-1.57s.28201355-1.1920514.76471728-1.57c9.212-7.272 12.351-9.767 13.49-10.645-.5563792-.6130156-1.4320665-.8215125-2.205-.525-.39.155.8-.734-14.285 11.17-.48270373.3779486-.76471728.9569355-.76471728 1.57s.28201355 1.1920514.76471728 1.57z" fill="#fff"/><path id="Shape" d="m3 21h3c-1.10320187-.0032948-1.9967052-.8967981-2-2v-10c.0032948-1.10320187.89679813-1.9967052 2-2h-3c-1.10320187.0032948-1.9967052.89679813-2 2v10c.0032948 1.1032019.89679813 1.9967052 2 2z" fill="#fff"/><path id="Rectangle-path" d="m2.13 36.952h8v2h-8z" fill="#fff" transform="matrix(.785 -.62 .62 .785 -22.197 11.962)"/><g fill="#428dff"><path id="Shape" d="m3 22h36v2.87c-.0001551 1.1498109.6568853 2.1985582 1.6915748 2.7000387s2.2649788.3674608 3.1674252-.3450387l13.768-10.868c.7237279-.5673464 1.1464712-1.4359001 1.1464712-2.3555s-.4227433-1.7881536-1.1464712-2.3555l-13.765-10.869c-.9021311-.71411926-2.1332122-.84937774-3.1688716-.34816288s-1.6934262 1.55059489-1.6931284 2.70116288v2.87h-26c-.5522847 0-1 .44771525-1 1s.4477153 1 1 1h27c.5522847 0 1-.44771525 1-1v-3.87c-.0001527-.38339444.2189091-.733125.5639309-.90031146.3450217-.16718646.7552571-.12239314 1.0560691.11531146l13.773 10.872c.2416571.1883472.3829517.4776133.3829517.784s-.1412946.5956528-.3829517.784l-13.775 10.872c-.3011152.2367013-.7109766.280618-1.0554053.1130868-.3444288-.1675312-.5629096-.5170754-.5625947-.9000868v-3.87c0-.5522847-.4477153-1-1-1h-37c-.55228475 0-1-.4477153-1-1v-10c0-.55228475.44771525-1 1-1h5c.55228475 0 1-.44771525 1-1s-.44771525-1-1-1h-5c-1.65685425 0-3 1.34314575-3 3v10c0 1.6568542 1.34314575 3 3 3z"/><path id="Shape" d="m5.51 37.167c-.43323729.3423946-.50694299.9711405-.16463869 1.4044492.3423043.4333086.97103491.5071453 1.40441483.1649312.43337991-.342214.50734759-.9709292.16522386-1.4043804-.16438491-.2082663-.40479842-.3426672-.66831228-.3736136-.26351386-.0309465-.52852423.0440986-.73668772.2086136z"/><path id="Shape" d="m20 36h27c.5522847 0 1-.4477153 1-1s-.4477153-1-1-1h-26v-2.87c.0002978-1.150568-.657469-2.199948-1.6931284-2.7011629-1.0356594-.5012148-2.2667405-.3659564-3.1688716.3481629l-7.488 5.911c-.43354353.3421404-.5076404.9709565-.1655 1.4045s.97095647.5076404 1.4045.1655l7.491-5.913c.300812-.2377046.7110474-.2824979 1.0560691-.1153115.3450218.1671865.5640836.5169171.5639309.9003115v3.87c0 .5522847.4477153 1 1 1z"/><path id="Shape" d="m57 34h-5c-.5522847 0-1 .4477153-1 1s.4477153 1 1 1h5c.5522847 0 1 .4477153 1 1v10c0 .5522847-.4477153 1-1 1h-37c-.5522847 0-1 .4477153-1 1v3.87c.0001527.3833944-.2189091.733125-.5639309.9003115-.3450217.1671864-.7552571.1223931-1.0560691-.1153115l-13.773-10.872c-.24125375-.188167-.38229549-.4770422-.38229549-.783s.14104174-.594833.38229549-.783c.4346481-.3407597.51075969-.9693519.17-1.404s-.9693519-.5107597-1.404-.17c-.72372787.5673464-1.14647116 1.4359001-1.14647116 2.3555s.42274329 1.7881536 1.14647116 2.3555l13.765 10.869c.9021311.7141193 2.1332122.8493777 3.1688716.3481629 1.0356594-.5012149 1.6934262-1.5505949 1.6931284-2.7011629v-2.87h36c1.6568542 0 3-1.3431458 3-3v-10c0-1.6568542-1.3431458-3-3-3z"/><path id="Shape" d="m55 46c.5522847 0 1-.4477153 1-1v-3c0-.5522847-.4477153-1-1-1s-1 .4477153-1 1v2h-2c-.5522847 0-1 .4477153-1 1s.4477153 1 1 1z"/><path id="Shape" d="m5 13c-.55228475 0-1 .4477153-1 1v3c0 .5522847.44771525 1 1 1h3c.55228475 0 1-.4477153 1-1s-.44771525-1-1-1h-2v-2c0-.5522847-.44771525-1-1-1z"/></g></g></g></svg>